<?xml version="1.0" standalone="no"?>
<!DOCTYPE svg PUBLIC "-//W3C//DTD SVG 20010904//EN"
 "http://www.w3.org/TR/2001/REC-SVG-20010904/DTD/svg10.dtd">
<svg version="1.0" xmlns="http://www.w3.org/2000/svg"
 width="1024.000000pt" height="1024.000000pt" viewBox="0 0 1024.000000 1024.000000"
 preserveAspectRatio="xMidYMid meet">
<metadata>
Created by potrace 1.11, written by Peter Selinger 2001-2013
</metadata>
<g transform="translate(0.000000,1024.000000) scale(0.100000,-0.100000)"
fill="#000000" stroke="none">
<path d="M4443 7553 c-356 -445 -718 -893 -805 -996 -353 -423 -585 -759 -752
-1095 -157 -314 -243 -587 -277 -882 -15 -131 -7 -435 16 -580 85 -549 337
-1037 738 -1427 396 -385 876 -615 1437 -689 159 -20 531 -15 690 11 250 40
474 112 715 229 249 122 467 278 665 476 433 432 687 993 730 1615 38 538
-134 1097 -504 1640 -96 141 -363 492 -519 685 -60 74 -413 514 -783 978 -370
463 -680 842 -688 842 -9 0 -307 -363 -663 -807z"/>
</g>
</svg>
